:SAMPLES-PER-SECOND 30
:FULLY-SPECIFIED
:DEGREES
148
root  4.98757 42.1522 6.41561 162.7 -83.6776 -160.448
RightUpLeg  -21.6875 4.80752 -6.91695
RightLeg  53.1794 -5.0371 -7.51951
RightFoot  -0.337654 -0.912434 9.53551
RightToes  1.16414e-010 0 -3.6325e-017
Spine  20.7667 -0.699546 8.76054
Spine1  -8.86805 1.60101 -9.74696
HEad  -9.31865 7.86389 -0.121271
LeftShoulder1  -0.147904 4.5847 -5.83576
LeftArm  -49.0929 24.9474 -45.2531
LeftForeArm  -58.5488 -43.4017 -13.0789
LeftHand  2.74369 13.5943 37.0617
RightShoulder  1.39228 3.06794 14.3425
RightArm  7.48917 -41.5265 18.7452
RightForeArm  161.93 75.0238 142.62
RightHand  -0.0609331 -9.27172 0.524389
LeftUpLeg  -6.39343 10.4283 11.0709
LeftLeg  12.9322 -0.559677 0.451238
LeftFoot  16.815 5.97807 -23.9536
LeftToes  7.09373e-011 9.9627e-011 8.96859e-012
149
root  5.16578 42.9305 6.28643 -174.119 -85.7818 176.063
RightUpLeg  -25.6784 -0.834539 -4.94269
RightLeg  76.2777 -1.79228 -9.49559
RightFoot  -4.44673 -0.690947 10.8552
RightToes  1.16414e-010 0 -3.6325e-017
Spine  21.8159 -1.28129 8.05426
Spine1  -9.38058 1.21947 -12.6578
HEad  -8.99804 5.6303 0.956732
LeftShoulder1  -0.412423 7.1412 -3.23303
LeftArm  -52.9481 16.8053 -37.4922
LeftForeArm  -39.0592 -51.9763 -16.7613
LeftHand  2.60313 12.6297 39.533
RightShoulder  1.70529 4.25801 15.2156
RightArm  21.2696 -47.3446 12.8139
RightForeArm  139.621 79.5637 118.936
RightHand  -0.388276 -9.65295 8.58124
LeftUpLeg  -5.64073 10.9316 9.81103
LeftLeg  8.8738 -1.46727 -0.324512
LeftFoot  26.3848 8.7377 -25.7756
LeftToes  7.09373e-011 9.9627e-011 8.96859e-012
150
root  5.44208 43.2626 6.15856 -131.079 -86.4623 131.789
RightUpLeg  -27.737 -6.67632 -2.59555
RightLeg  95.5796 1.76624 -10.3507
RightFoot  -6.3482 -0.485086 10.1306
RightToes  1.16414e-010 0 -3.6325e-017
Spine  22.1171 -1.02462 7.53518
Spine1  -6.52553 2.16327 -15.9221
HEad  -10.6771 1.14846 0.866485
LeftShoulder1  -0.470189 9.2497 0.334855
LeftArm  -56.3135 3.12666 -33.874
LeftForeArm  -15.3564 -60.2054 -21.5148
LeftHand  2.35616 11.9236 39.6607
RightShoulder  1.95034 5.14167 15.8624
RightArm  32.276 -53.6631 10.8313
RightForeArm  102.88 80.7839 82.2111
RightHand  -0.537863 -9.49034 13.6637
LeftUpLeg  -5.97611 9.07624 8.37535
LeftLeg  10.8929 0.41622 0.430906
LeftFoot  29.6375 9.31746 -25.1229
LeftToes  7.09373e-011 9.9627e-011 8.96859e-012
151
root  5.78081 43.3268 6.07015 -105.978 -85.4314 105.867
RightUpLeg  -30.2659 -12.0788 0.91863
RightLeg  107.058 5.14723 -13.5913
RightFoot  -6.65218 -0.392449 8.45863
RightToes  1.16414e-010 0 -3.6325e-017
Spine  22.2459 -0.0804809 7.80564
Spine1  -3.06386 4.21402 -19.0811
HEad  -11.8584 -3.5228 0.0755816
LeftShoulder1  -0.241897 10.5014 5.7306
LeftArm  -57.5224 -11.9221 -34.9217
LeftForeArm  13.7936 -68.8902 -30.0502
LeftHand  2.41572 12.5516 37.3617
RightShoulder  2.08708 5.43988 16.7041
RightArm  34.8521 -59.3035 14.801
RightForeArm  79.7162 79.4242 59.5863
RightHand  0.110517 -4.23787 15.9709
LeftUpLeg  -7.08566 6.19104 8.27157
LeftLeg  16.2282 2.66708 1.4109
LeftFoot  28.2322 8.07393 -22.6804
LeftToes  7.09373e-011 9.9627e-011 8.96859e-012
152
root  6.11719 43.1647 6.05497 -105.429 -84.2744 105.336
RightUpLeg  -34.2164 -15.0575 4.05939
RightLeg  108.276 7.23954 -18.1459
RightFoot  -8.37219 -0.247941 7.24755
RightToes  1.16414e-010 0 -3.6325e-017
Spine  22.8937 1.02172 7.7182
Spine1  -1.26986 6.05177 -20.8595
HEad  -11.0152 -5.49208 -1.4312
LeftShoulder1  0.107566 10.871 11.3898
LeftArm  -53.2783 -23.8131 -37.4358
LeftForeArm  60.6892 -77.8717 -55.6412
LeftHand  2.69993 14.1199 34.4897
RightShoulder  2.33366 5.94374 18.1751
RightArm  28.2677 -62.1541 23.5611
RightForeArm  71.3967 78.7236 56.142
RightHand  0.831059 2.36176 12.3369
LeftUpLeg  -8.04583 3.59977 9.31113
LeftLeg  21.1143 2.91026 1.54138
LeftFoot  25.475 6.25843 -19.1395
LeftToes  7.09373e-011 9.9627e-011 8.96859e-012
153
root  6.47046 42.7721 6.19611 -114.777 -83.2079 114.269
RightUpLeg  -36.8599 -14.1723 4.49595
RightLeg  98.9207 4.54411 -20.6435
RightFoot  -11.4353 -0.0691007 6.46469
RightToes  1.16414e-010 0 -3.6325e-017
Spine  24.6672 1.91394 6.91912
Spine1  -0.05313 7.06174 -19.8063
HEad  -10.284 -5.02259 -5.0734
LeftShoulder1  0.253713 9.80664 14.2628
LeftArm  -42.3006 -30.4898 -38.1534
LeftForeArm  145.437 -79.5023 -121.18
LeftHand  2.67771 15.3657 30.2115
RightShoulder  2.62107 6.82138 18.9397
RightArm  15.4356 -59.6613 36.7685
RightForeArm  63.3161 78.6677 61.8976
RightHand  0.297882 2.51115 3.83597
LeftUpLeg  -7.28719 0.803744 10.6388
LeftLeg  23.3846 1.90409 1.25017
LeftFoot  24.3548 4.70566 -15.0483
LeftToes  7.09373e-011 9.9627e-011 8.96859e-012
154
root  6.88928 42.1491 6.5857 -126.962 -82.7781 125.286
RightUpLeg  -36.378 -11.6843 2.81839
RightLeg  80.3579 -2.60852 -20.3915
RightFoot  -12.9602 0.0102984 7.14881
RightToes  1.16414e-010 0 -3.6325e-017
Spine  26.9865 2.40367 7.10913
Spine1  2.27296 7.48567 -15.7083
HEad  -9.78313 -4.07936 -10.4394
LeftShoulder1  0.0954458 6.71472 12.6262
LeftArm  -24.189 -31.4233 -38.0901
LeftForeArm  -174.23 -74.1033 -149.927
LeftHand  2.02611 15.1235 23.7787
RightShoulder  2.58604 7.14306 17.727
RightArm  4.26788 -48.3606 50.0166
RightForeArm  40.3866 77.1273 57.4342
RightHand  -0.388956 1.28536 -6.63416
LeftUpLeg  -4.76121 -4.3232 12.1061
LeftLeg  22.9222 2.84422 1.64092
LeftFoot  25.1168 4.2336 -13.2504
LeftToes  7.09373e-011 9.9627e-011 8.96859e-012
155
root  7.33803 41.454 7.24987 -143.642 -83.3911 141.91
RightUpLeg  -33.9978 -9.56785 1.76997
RightLeg  53.902 -12.6312 -18.0976
RightFoot  -10.8958 -0.105719 8.12512
RightToes  1.16414e-010 0 -3.6325e-017
Spine  28.0571 2.41026 10.0812
Spine1  5.01381 7.42099 -9.47621
HEad  -4.67949 -1.66567 -12.4642
LeftShoulder1  0.0232578 2.45703 7.80338
LeftArm  -0.959551 -26.013 -41.0557
LeftForeArm  176.961 -77.1142 -137.829
LeftHand  1.32537 14.4523 17.2385
RightShoulder  2.48579 7.01355 17.0175
RightArm  1.54099 -28.2989 54.5958
RightForeArm  6.45758 72.074 39.6159
RightHand  -0.648098 3.86413 -8.68654
LeftUpLeg  -2.07978 -10.4532 13.9419
LeftLeg  20.037 5.87233 2.68734
LeftFoot  24.4531 5.27175 -16.7414
LeftToes  7.09373e-011 9.9627e-011 8.96859e-012
156
root  7.65514 40.3806 7.99499 -154.723 -82.674 154.892
RightUpLeg  -30.7847 -6.57274 -0.492197
RightLeg  22.6303 -23.8873 -10.573
RightFoot  -4.53076 -0.419698 6.85258
RightToes  1.16414e-010 0 -3.6325e-017
Spine  26.9426 3.05959 11.7299
Spine1  7.20242 7.06146 -3.02128
HEad  6.28966 2.81956 -6.46155
LeftShoulder1  0.296841 -1.19881 2.35348
LeftArm  18.9723 -16.1087 -46.3325
LeftForeArm  85.3937 -77.3466 -47.6043
LeftHand  1.06928 15.1297 13.1112
RightShoulder  2.82028 7.43887 19.3962
RightArm  2.67148 -3.78012 51.224
RightForeArm  -25.3288 62.3827 24.7321
RightHand  -0.840539 5.16877 -8.83925
LeftUpLeg  -1.18868 -13.8687 14.4451
LeftLeg  18.4459 8.15366 3.35823
LeftFoot  16.3115 5.93363 -24.566
LeftToes  7.09373e-011 9.9627e-011 8.96859e-012
157
root  7.71374 38.7394 8.59222 -149.545 -79.9907 151.615
RightUpLeg  -28.5942 -3.4046 -5.25475
RightLeg  -2.49445 -30.1052 -0.00954851
RightFoot  4.63602 -0.667568 4.88003
RightToes  1.16414e-010 0 -3.6325e-017
Spine  25.2016 4.42924 9.70566
Spine1  9.78925 6.67845 2.47893
HEad  14.0094 5.13027 4.08762
LeftShoulder1  0.684832 -2.98993 -2.50605
LeftArm  31.1712 -5.48598 -51.0468
LeftForeArm  46.8456 -53.7515 -10.2983
LeftHand  1.03656 15.8549 11.9309
RightShoulder  2.67351 7.06125 18.4324
RightArm  0.337654 19.5377 52.5311
RightForeArm  -48.9284 50.2488 16.0247
RightHand  -3.27103 9.26569 -25.0662
LeftUpLeg  -1.26388 -12.2835 12.6547
LeftLeg  20.2536 6.59737 3.00639
LeftFoot  0.391924 3.32465 -31.0231
LeftToes  7.09373e-011 9.9627e-011 8.96859e-012
158
root  7.93769 37.2591 9.09736 -144.962 -76.9608 147.72
RightUpLeg  -31.5125 -5.51373 -7.27724
RightLeg  -6.32168 -28.0159 2.23375
RightFoot  11.1474 -0.742551 4.13412
RightToes  1.16414e-010 0 -3.6325e-017
Spine  25.8451 5.4212 8.92203
Spine1  13.669 6.21487 7.27354
HEad  10.7943 5.18032 14.2468
LeftShoulder1  0.895888 -2.68015 -6.92938
LeftArm  37.3349 5.23919 -53.7679
LeftForeArm  36.78 -34.33 -5.12618
LeftHand  0.997018 15.969 11.3974
RightShoulder  1.17337 4.0852 8.17087
RightArm  -10.2063 37.3174 63.2037
RightForeArm  -52.7083 41.959 12.3277
RightHand  -6.23735 16.2289 -33.5207
LeftUpLeg  -1.13576 -8.12618 10.5011
LeftLeg  22.4411 3.56578 1.96094
LeftFoot  -14.2688 -0.680133 -30.6708
LeftToes  7.09373e-011 9.9627e-011 8.96859e-012
159
root  8.30863 36.3601 9.21641 -137.395 -75.5658 141.173
RightUpLeg  -36.4656 -7.79312 -8.62384
RightLeg  -0.14168 -28.7418 0.144664
RightFoot  14.9116 -0.319159 1.81951
RightToes  1.16414e-010 0 -3.6325e-017
Spine  28.8115 5.84637 10.585
Spine1  16.6396 5.95841 10.5691
HEad  1.9368 7.9092 25.5624
LeftShoulder1  0.947443 -1.6758 -11.0448
LeftArm  36.6103 15.5773 -53.8903
LeftForeArm  27.4777 -24.3156 -4.33254
LeftHand  1.05044 15.6345 12.355
RightShoulder  0.66007 2.32862 3.36114
RightArm  -26.5466 50.654 59.4423
RightForeArm  -44.9899 40.8063 11.8025
RightHand  -5.83317 22.2865 -24.344
LeftUpLeg  -2.61358 -6.10028 9.07421
LeftLeg  23.4598 1.32905 0.981843
LeftFoot  -22.011 -2.5995 -28.5128
LeftToes  7.09373e-011 9.9627e-011 8.96859e-012
160
root  8.48071 36.0009 8.6582 -122.813 -76.1381 129.028
RightUpLeg  -40.1055 -9.63187 -9.8607
RightLeg  2.29441 -32.344 -0.674744
RightFoot  16.586 0.447398 -1.35263
RightToes  1.16414e-010 0 -3.6325e-017
Spine  31.4401 5.86354 13.2484
Spine1  15.8661 6.85028 12.1304
HEad  -10.9049 7.72189 30.3125
LeftShoulder1  1.0622 -1.57649 -13.9286
LeftArm  25.6654 23.1775 -52.2429
LeftForeArm  29.5748 -16.452 -8.41725
LeftHand  1.1328 14.7896 14.3325
RightShoulder  0.404252 1.10281 0.408882
RightArm  -51.0083 57.1369 39.5745
RightForeArm  -39.1412 41.8523 12.015
RightHand  -5.52052 24.695 -21.3036
LeftUpLeg  -6.07958 -7.78697 8.8581
LeftLeg  22.4569 -0.0178975 0.31646
LeftFoot  -22.2092 -2.65383 -28.8234
LeftToes  7.09373e-011 9.9627e-011 8.96859e-012
161
root  8.51113 36.1518 7.60406 -108.012 -76.7652 117.689
RightUpLeg  -42.4292 -9.88327 -10.2478
RightLeg  0.114667 -35.9573 0.253865
RightFoot  16.6097 0.701588 -2.34801
RightToes  1.16414e-010 0 -3.6325e-017
Spine  33.6319 6.38081 16.5056
Spine1  12.3675 8.89215 12.9151
HEad  -20.7437 4.16409 31.7165
LeftShoulder1  1.24182 -2.29921 -14.5325
LeftArm  7.61957 28.1507 -49.9618
LeftForeArm  42.4145 -5.14256 -14.5408
LeftHand  0.962323 13.4898 14.1641
RightShoulder  0.261933 0.0446265 -1.1957
RightArm  -76.8372 54.1622 13.6318
RightForeArm  -42.9147 39.5234 11.3069
RightHand  -4.47922 20.7511 -20.0259
LeftUpLeg  -9.64212 -10.7402 9.84619
LeftLeg  19.4005 4.00165 1.83613
LeftFoot  -16.9476 -1.31272 -27.8796
LeftToes  7.09373e-011 9.9627e-011 8.96859e-012
